<?xml version="1.0" encoding="utf-8"?>
<!-- Generator: Adobe Illustrator 16.0.0, SVG Export Plug-In . SVG Version: 6.00 Build 0)  -->
<!DOCTYPE svg PUBLIC "-//W3C//DTD SVG 1.1//EN" "http://www.w3.org/Graphics/SVG/1.1/DTD/svg11.dtd">
<svg version="1.1" xmlns="http://www.w3.org/2000/svg" xmlns:xlink="http://www.w3.org/1999/xlink" x="0px" y="0px" width="33px"
	 height="31px" viewBox="0 0 33 31" enable-background="new 0 0 33 31" xml:space="preserve">
<g id="Layer_1">
</g>
<g id="Header">
	<path opacity="0.98" fill="#454D59" d="M32.811,5.913c-0.188-0.271-0.492-0.439-0.822-0.451L11.517,4.581
		c-0.587-0.025-1.079,0.427-1.103,1.01c-0.025,0.584,0.427,1.076,1.012,1.102l19.084,0.82l-3.752,11.687H10.058L7.042,2.802
		C6.977,2.444,6.728,2.144,6.388,2.01L1.447,0.073C0.903-0.139,0.29,0.127,0.075,0.67c-0.216,0.542,0.052,1.157,0.599,1.37
		l4.392,1.723l3.072,16.684c0.093,0.501,0.53,0.865,1.042,0.865h0.509l-1.165,3.224c-0.096,0.271-0.057,0.571,0.111,0.806
		c0.164,0.234,0.433,0.374,0.722,0.374h0.815c-0.506,0.561-0.815,1.3-0.815,2.112c0,1.75,1.424,3.172,3.176,3.172
		c1.751,0,3.177-1.422,3.177-3.172c0-0.812-0.311-1.552-0.816-2.112h6.926c-0.506,0.561-0.815,1.3-0.815,2.112
		c0,1.75,1.424,3.172,3.176,3.172c1.751,0,3.177-1.422,3.177-3.172c0-0.812-0.312-1.552-0.815-2.112h0.991
		c0.488,0,0.881-0.396,0.881-0.881s-0.393-0.882-0.881-0.882H10.608l0.954-2.643h15.968c0.461,0,0.867-0.297,1.008-0.732
		l4.413-13.74C33.051,6.526,33,6.183,32.811,5.913z M12.531,29.238c-0.779,0-1.411-0.631-1.411-1.408c0-0.778,0.632-1.41,1.411-1.41
		c0.778,0,1.412,0.632,1.412,1.41C13.943,28.607,13.309,29.238,12.531,29.238z M24.179,29.238c-0.778,0-1.41-0.631-1.41-1.408
		c0-0.778,0.632-1.41,1.41-1.41s1.413,0.632,1.413,1.41C25.592,28.607,24.957,29.238,24.179,29.238z"/>
</g>
</svg>
