<?xml version="1.0" encoding="utf-8"?>
<!-- Generator: Adobe Illustrator 16.0.0, SVG Export Plug-In . SVG Version: 6.00 Build 0)  -->
<!DOCTYPE svg PUBLIC "-//W3C//DTD SVG 1.1//EN" "http://www.w3.org/Graphics/SVG/1.1/DTD/svg11.dtd">
<svg version="1.1" id="Layer_1" xmlns="http://www.w3.org/2000/svg" xmlns:xlink="http://www.w3.org/1999/xlink" x="0px" y="0px"
	 width="288px" height="288px" viewBox="252 0 288 288" enable-background="new 252 0 288 288" xml:space="preserve">
<g>
	<g>
		<path fill="#697585" d="M396,0c-79.488,0-144,64.512-144,144c0,79.488,64.512,144,144,144c79.488,0,144-64.512,144-144
			C540,64.512,475.488,0,396,0L396,0z"/>
		<path fill="#FFFFFF" d="M396,7.68c75.264,0,136.32,61.056,136.32,136.32c0,75.264-61.058,136.32-136.32,136.32
			c-75.264,0-136.32-61.057-136.32-136.32C259.68,68.736,320.736,7.68,396,7.68"/>
	</g>
	<g>
		<path fill="#697585" d="M441.312,87.168h-4.992c-6.146,0-11.138,4.992-11.138,11.136v2.688c0,6.144,4.992,11.136,11.138,11.136
			h4.992c6.144,0,11.136-4.992,11.136-11.136v-2.688C452.448,92.16,447.456,87.168,441.312,87.168z M446.688,100.992
			c0,3.072-2.688,5.76-5.76,5.76h-4.606c-3.072,0-5.762-2.688-5.762-5.76v-2.688c0-3.072,2.688-5.76,5.762-5.76h4.991
			c3.071,0,5.761,2.688,5.761,5.76v2.688H446.688z"/>
		<path fill="#697585" d="M449.376,76.416H342.624c-7.68,0-14.208,6.528-14.208,14.208v26.88v6.912v72.576
			c0,7.68,6.528,14.208,14.208,14.208h106.752c7.68,0,14.208-6.528,14.208-14.208V124.8v-6.912v-26.88
			C463.584,82.944,457.056,76.416,449.376,76.416z M456.672,197.376c0,3.84-3.072,7.296-7.296,7.296H342.624
			c-3.84,0-7.296-3.072-7.296-7.296V124.8h30.72c-1.536,3.84-2.304,8.064-2.304,12.288c0,17.664,14.592,32.256,32.256,32.256
			s32.256-14.592,32.256-32.256c0-4.224-0.768-8.448-2.304-12.288h30.72V197.376L456.672,197.376z M417.12,122.88
			c2.688,4.224,4.224,8.832,4.224,13.824c0,13.823-11.52,25.344-25.344,25.344s-25.344-11.521-25.344-25.344
			c0-4.992,1.536-9.6,4.224-13.824l0,0c4.608-7.296,12.672-11.52,21.12-11.52S412.512,115.968,417.12,122.88z M422.112,117.504
			c-6.146-8.448-15.744-13.056-26.112-13.056s-19.968,4.992-26.112,13.056h-34.56v-26.88c0-3.84,3.072-7.296,7.296-7.296h106.752
			c3.84,0,7.296,3.072,7.296,7.296v26.88H422.112z"/>
		<circle fill="#697585" cx="396" cy="136.704" r="19.968"/>
		<path fill="#697585" d="M362.976,87.168c-1.536,0-2.688,1.152-2.688,2.688v18.816c0,1.536,1.152,2.688,2.688,2.688
			s2.688-1.152,2.688-2.688V89.856C365.664,88.704,364.512,87.168,362.976,87.168z"/>
		<path fill="#697585" d="M355.68,87.168c-1.536,0-2.688,1.152-2.688,2.688v18.816c0,1.536,1.152,2.688,2.688,2.688
			c1.536,0,2.688-1.152,2.688-2.688V89.856C357.984,88.704,356.832,87.168,355.68,87.168z"/>
		<path fill="#697585" d="M348,87.168c-1.536,0-2.688,1.152-2.688,2.688v18.816c0,1.536,1.152,2.688,2.688,2.688
			s2.688-1.152,2.688-2.688V89.856C350.688,88.704,349.536,87.168,348,87.168z"/>
		<path fill="#697585" d="M340.704,89.856c-1.536,0-2.688,1.152-2.688,2.688v16.512c0,1.536,1.152,2.688,2.688,2.688
			s2.688-1.152,2.688-2.688V92.16C343.392,91.008,342.24,89.856,340.704,89.856z"/>
	</g>
</g>
</svg>
