<?xml version="1.0" encoding="utf-8"?>
<!-- Generator: Adobe Illustrator 16.0.0, SVG Export Plug-In . SVG Version: 6.00 Build 0)  -->
<!DOCTYPE svg PUBLIC "-//W3C//DTD SVG 1.1//EN" "http://www.w3.org/Graphics/SVG/1.1/DTD/svg11.dtd">
<svg version="1.1" id="Layer_1" xmlns="http://www.w3.org/2000/svg" xmlns:xlink="http://www.w3.org/1999/xlink" x="0px" y="0px"
	 width="288px" height="288px" viewBox="252 0 288 288" enable-background="new 252 0 288 288" xml:space="preserve">
<g>
	<g>
		<path fill="#697585" d="M396,0c-79.488,0-144,64.512-144,144c0,79.488,64.512,144,144,144c79.488,0,144-64.512,144-144
			C540,64.512,475.488,0,396,0L396,0z"/>
		<path fill="#FFFFFF" d="M396,7.68c75.264,0,136.32,61.056,136.32,136.32c0,75.264-61.058,136.32-136.32,136.32
			c-75.264,0-136.32-61.057-136.32-136.32C259.68,68.736,320.736,7.68,396,7.68"/>
	</g>
	<path fill="#697585" d="M380.256,128.64H369.12c-2.688,0-4.608-1.92-4.608-4.608c0-2.304,2.304-4.608,4.608-4.608h11.136v-9.984
		c0-11.904,3.072-21.12,9.216-26.88c5.376-5.376,12.67-8.064,21.888-8.064c4.99,0,8.832,0.768,12.288,1.536
		c2.304,0.384,3.84,2.304,3.84,4.608c0,2.688-2.688,4.992-5.761,4.224c-3.071-0.768-6.527-1.152-10.753-1.152
		c-14.208,0-21.12,8.448-21.12,26.112v9.984h32.256c2.688,0,4.606,1.92,4.606,4.608c0,2.304-2.304,4.608-4.606,4.608H390.24v89.856
		c0,2.688-1.92,4.992-4.992,4.992c-2.688,0-4.992-2.304-4.992-4.992V128.64L380.256,128.64z"/>
</g>
</svg>
