<?xml version="1.0" encoding="utf-8"?>
<!-- Generator: Adobe Illustrator 16.0.0, SVG Export Plug-In . SVG Version: 6.00 Build 0)  -->
<!DOCTYPE svg PUBLIC "-//W3C//DTD SVG 1.1//EN" "http://www.w3.org/Graphics/SVG/1.1/DTD/svg11.dtd">
<svg version="1.1" id="Layer_1" xmlns="http://www.w3.org/2000/svg" xmlns:xlink="http://www.w3.org/1999/xlink" x="0px" y="0px"
	 width="288px" height="288px" viewBox="0 0 288 288" enable-background="new 0 0 288 288" xml:space="preserve">
<g>
	<path fill="#FFFFFF" d="M144,0C64.512,0,0,64.512,0,144c0,79.488,64.512,144,144,144s144-64.512,144-144
		C288,64.512,223.488,0,144,0L144,0z M144,7.68c75.264,0,136.32,61.056,136.32,136.32c0,75.264-61.059,136.32-136.32,136.32
		C68.736,280.32,7.68,219.264,7.68,144C7.68,68.736,68.736,7.68,144,7.68"/>
	<g>
		<path fill="#FFFFFF" d="M189.312,87.168h-4.991c-6.146,0-11.139,4.992-11.139,11.136v2.688c0,6.144,4.992,11.136,11.139,11.136
			h4.991c6.145,0,11.137-4.992,11.137-11.136v-2.688C200.448,92.16,195.456,87.168,189.312,87.168z M194.688,100.992
			c0,3.072-2.688,5.76-5.761,5.76h-4.605c-3.072,0-5.763-2.688-5.763-5.76v-2.688c0-3.072,2.688-5.76,5.763-5.76h4.991
			c3.07,0,5.761,2.688,5.761,5.76v2.688H194.688z"/>
		<path fill="#FFFFFF" d="M197.376,76.416H90.624c-7.681,0-14.208,6.528-14.208,14.208v26.88v6.912v72.576
			c0,7.68,6.527,14.208,14.208,14.208h106.752c7.68,0,14.208-6.528,14.208-14.208V124.8v-6.912v-26.88
			C211.584,82.944,205.056,76.416,197.376,76.416z M204.672,197.376c0,3.84-3.072,7.296-7.296,7.296H90.624
			c-3.84,0-7.296-3.072-7.296-7.296V124.8h30.72c-1.536,3.84-2.304,8.064-2.304,12.288c0,17.664,14.592,32.256,32.256,32.256
			s32.256-14.592,32.256-32.256c0-4.224-0.768-8.448-2.304-12.288h30.72V197.376L204.672,197.376z M165.12,122.88
			c2.688,4.224,4.224,8.832,4.224,13.824c0,13.823-11.52,25.344-25.344,25.344s-25.344-11.521-25.344-25.344
			c0-4.992,1.535-9.6,4.224-13.824l0,0c4.608-7.296,12.672-11.52,21.12-11.52S160.512,115.968,165.12,122.88z M170.112,117.504
			c-6.146-8.448-15.744-13.056-26.112-13.056s-19.968,4.992-26.111,13.056H83.328v-26.88c0-3.84,3.072-7.296,7.296-7.296h106.752
			c3.84,0,7.296,3.072,7.296,7.296v26.88H170.112z"/>
		<circle fill="#FFFFFF" cx="144" cy="136.704" r="19.968"/>
		<path fill="#FFFFFF" d="M110.977,87.168c-1.537,0-2.688,1.152-2.688,2.688v18.816c0,1.536,1.151,2.688,2.688,2.688
			c1.535,0,2.688-1.152,2.688-2.688V89.856C113.664,88.704,112.512,87.168,110.977,87.168z"/>
		<path fill="#FFFFFF" d="M103.68,87.168c-1.535,0-2.688,1.152-2.688,2.688v18.816c0,1.536,1.152,2.688,2.688,2.688
			c1.536,0,2.688-1.152,2.688-2.688V89.856C105.984,88.704,104.832,87.168,103.68,87.168z"/>
		<path fill="#FFFFFF" d="M96,87.168c-1.536,0-2.688,1.152-2.688,2.688v18.816c0,1.536,1.151,2.688,2.688,2.688
			s2.688-1.152,2.688-2.688V89.856C98.688,88.704,97.536,87.168,96,87.168z"/>
		<path fill="#FFFFFF" d="M88.704,89.856c-1.536,0-2.688,1.152-2.688,2.688v16.512c0,1.536,1.152,2.688,2.688,2.688
			s2.688-1.152,2.688-2.688V92.16C91.393,91.008,90.24,89.856,88.704,89.856z"/>
	</g>
</g>
</svg>
