<?xml version="1.0" encoding="utf-8"?>
<!-- Generator: Adobe Illustrator 16.0.0, SVG Export Plug-In . SVG Version: 6.00 Build 0)  -->
<!DOCTYPE svg PUBLIC "-//W3C//DTD SVG 1.1//EN" "http://www.w3.org/Graphics/SVG/1.1/DTD/svg11.dtd">
<svg version="1.1" id="Layer_1" xmlns="http://www.w3.org/2000/svg" xmlns:xlink="http://www.w3.org/1999/xlink" x="0px" y="0px"
	 width="288px" height="288px" viewBox="252 0 288 288" enable-background="new 252 0 288 288" xml:space="preserve">
<g>
	<g>
		<path fill="#697585" d="M396,0c-79.488,0-144,64.512-144,144c0,79.488,64.512,144,144,144c79.488,0,144-64.512,144-144
			C540,64.512,475.488,0,396,0L396,0z"/>
		<path fill="#FFFFFF" d="M396,7.68c75.264,0,136.32,61.056,136.32,136.32c0,75.264-61.058,136.32-136.32,136.32
			c-75.264,0-136.32-61.057-136.32-136.32C259.68,68.736,320.736,7.68,396,7.68"/>
	</g>
	<path fill="#697585" d="M369.12,220.8c-19.2,0-37.632-5.376-53.76-15.743c-1.536-0.769-1.92-2.688-1.536-4.225
		c0.384-1.536,1.92-2.688,3.84-2.305c2.688,0.385,4.992,0.385,7.68,0.385c11.521,0,22.656-3.072,32.64-8.832
		c-11.904-3.456-21.504-12.288-25.344-24.576c-0.384-1.152,0-2.304,0.768-3.456c0.768-0.769,1.536-1.151,2.688-1.151l0,0
		c-9.216-6.912-15.36-18.047-15.36-30.335l0,0c0-1.152,0.768-2.304,1.92-3.072c1.152-0.768,2.304-0.768,3.456,0
		c0.768,0.384,1.536,0.768,1.92,1.152c-4.608-6.144-6.912-13.824-6.912-21.888c0-6.528,1.92-13.056,4.992-18.816
		c0.768-1.152,1.536-1.536,2.688-1.536c1.152,0,2.304,0.384,3.072,1.152c15.744,19.2,38.4,31.104,62.592,33.792
		c0-1.152-0.384-2.688-0.384-3.84c0-20.352,16.896-37.248,37.248-37.248c9.6,0,18.814,3.84,25.728,10.368
		c6.528-1.536,12.672-3.84,18.434-7.296c1.15-0.768,2.688-0.768,3.84,0.384c1.152,0.768,1.536,2.304,1.152,3.84
		c-1.152,4.224-3.456,8.064-5.762,11.136c1.92-0.768,3.84-1.536,5.762-2.304c1.534-0.768,3.07-0.384,4.224,0.768
		c1.152,1.152,1.152,3.072,0.384,4.224c-4.606,6.528-9.983,12.288-16.128,17.28c0,0.768,0,1.92,0,2.688
		c0,24.192-9.216,48.768-25.728,67.2C429.792,203.137,406.368,220.8,369.12,220.8z M331.488,205.824
		c11.904,5.376,24.576,8.064,37.248,8.064c57.984,0,92.544-46.85,92.544-92.546c0-1.536,0-2.688,0-4.224
		c0-1.152,0.384-2.304,1.536-3.072c3.07-2.304,5.76-4.608,8.446-7.296c-2.688,0.768-5.76,1.152-8.446,1.536
		c-1.536,0.384-3.072-0.768-3.842-2.304c-0.384-1.536,0-3.456,1.536-4.224c3.456-1.92,6.146-4.608,8.832-7.68
		c-4.224,1.536-8.446,3.072-12.672,3.84c-1.151,0.384-2.304,0-3.072-1.152c-5.76-6.144-13.822-9.6-21.888-9.6
		c-16.512,0-30.336,13.44-30.336,30.336c0,2.304,0.384,4.608,0.768,6.912c0.386,1.152,0,2.304-0.768,3.072s-1.92,1.152-3.072,1.152
		c-26.112-1.152-50.688-13.056-68.352-32.256c-1.152,3.456-1.92,6.912-1.92,10.752c0,9.984,4.992,19.584,13.44,24.96
		c1.152,0.768,1.92,2.688,1.536,3.84c-0.384,1.536-1.92,2.304-3.456,2.304c-3.84,0-7.68-0.768-11.136-1.92
		c2.304,11.906,11.52,21.888,23.808,24.578c1.536,0.383,2.688,1.535,2.688,3.455c0,1.537-1.152,3.071-2.688,3.457
		c-3.456,0.768-6.912,1.534-10.752,1.15c4.992,9.602,14.976,15.744,26.112,15.744c1.536,0,2.688,1.15,3.456,2.304
		c0.384,1.536,0,3.072-1.152,3.841C358.368,199.68,345.312,204.672,331.488,205.824z"/>
</g>
</svg>
